<svg width="20" height="25" viewBox="0 0 20 25" fill="none" xmlns="http://www.w3.org/2000/svg">
<path d="M8.8229 13.6035C9.14582 13.9111 9.5729 14.0625 9.99998 14.0625C10.4271 14.0625 10.8531 13.9099 11.1781 13.6047L19.5114 5.79224C20.1625 5.18188 20.1625 4.19312 19.5114 3.58276C18.8604 2.97241 17.8057 2.97241 17.1547 3.58276L9.99998 10.293L2.8453 3.58301C2.19425 2.97266 1.13957 2.97266 0.488525 3.58301C-0.162516 4.19336 -0.162516 5.18213 0.488525 5.79248L8.8229 13.6035ZM17.1562 12.959L9.99998 19.668L2.8453 12.959C2.19425 12.3486 1.13957 12.3486 0.488525 12.959C-0.162516 13.5693 -0.162516 14.5581 0.488525 15.1685L8.82186 22.981C9.14582 23.2861 9.5729 23.4375 9.99998 23.4375C10.4271 23.4375 10.8531 23.2849 11.1781 22.9797L19.5114 15.1672C20.1625 14.5569 20.1625 13.5681 19.5114 12.9578C18.8604 12.3474 17.8073 12.3486 17.1562 12.959Z" fill="#2B7A78"/>
</svg>
