<svg width="249" height="314" viewBox="0 0 249 314" fill="none" xmlns="http://www.w3.org/2000/svg">
<rect x="65.3564" y="30.5149" width="61.3065" height="62.1859" rx="10" transform="rotate(-15.3763 65.3564 30.5149)" fill="#3AAFA9"/>
<rect x="65.9711" y="30.8644" width="60.3065" height="61.1859" rx="9.5" transform="rotate(-15.3763 65.9711 30.8644)" stroke="white" stroke-opacity="0.3"/>
<rect x="111.526" y="198.403" width="61.3065" height="62.1859" rx="10" transform="rotate(-15.3763 111.526 198.403)" fill="#3AAFA9"/>
<rect x="112.141" y="198.753" width="60.3065" height="61.1859" rx="9.5" transform="rotate(-15.3763 112.141 198.753)" stroke="white" stroke-opacity="0.3"/>
<ellipse cx="48.8879" cy="112.437" rx="26.5662" ry="26.9472" transform="rotate(-15.3763 48.8879 112.437)" fill="#61BFBA"/>
<ellipse cx="69.7605" cy="196.027" rx="26.5662" ry="26.9472" transform="rotate(-15.3763 69.7605 196.027)" fill="#61BFBA"/>
<ellipse cx="91.6848" cy="280.393" rx="26.5662" ry="26.9472" transform="rotate(-15.3763 91.6848 280.393)" fill="#FEFFFF"/>
<ellipse cx="192.845" cy="162.711" rx="26.5662" ry="26.9472" transform="rotate(-15.3763 192.845 162.711)" fill="#D6EFED"/>
<ellipse cx="169.871" cy="79.167" rx="26.5662" ry="26.9472" transform="rotate(-15.3763 169.871 79.167)" fill="#75C7C3" fill-opacity="0.3"/>
</svg>
