<svg width="429" height="443" viewBox="0 0 429 443" fill="none" xmlns="http://www.w3.org/2000/svg">
<rect x="75.3564" y="101.515" width="61.3065" height="62.1859" rx="10" transform="rotate(-15.3763 75.3564 101.515)" fill="#3AAFA9"/>
<rect x="75.9711" y="101.864" width="60.3065" height="61.1859" rx="9.5" transform="rotate(-15.3763 75.9711 101.864)" stroke="white" stroke-opacity="0.3"/>
<path d="M96.7579 196.293C95.2934 190.968 98.4232 185.464 103.748 183.999L143.576 173.047C148.901 171.582 154.406 174.712 155.87 180.037L167.056 220.713C168.52 226.038 165.391 231.542 160.065 233.007L120.237 243.959C114.912 245.424 109.408 242.294 107.944 236.969L96.7579 196.293Z" fill="#3AAFA9" fill-opacity="0.2"/>
<path d="M97.24 196.16C95.8488 191.101 98.822 185.873 103.881 184.481L143.709 173.529C148.768 172.137 153.997 175.111 155.388 180.17L166.574 220.846C167.965 225.904 164.992 231.133 159.933 232.524L120.105 243.477C115.046 244.868 109.817 241.895 108.426 236.836L97.24 196.16Z" stroke="#3AAFA9" stroke-opacity="0.3"/>
<path d="M301.279 435.968C296.885 419.993 306.275 403.481 322.25 399.088L372.376 385.303C388.351 380.91 404.863 390.299 409.257 406.274L420.829 448.355C425.222 464.331 415.833 480.843 399.858 485.236L349.732 499.021C333.756 503.414 317.244 494.025 312.851 478.049L301.279 435.968Z" fill="#3AAFA9" fill-opacity="0.2"/>
<rect x="121.526" y="269.403" width="61.3065" height="62.1859" rx="10" transform="rotate(-15.3763 121.526 269.403)" fill="#3AAFA9"/>
<rect x="122.141" y="269.752" width="60.3065" height="61.1859" rx="9.5" transform="rotate(-15.3763 122.141 269.752)" stroke="white" stroke-opacity="0.3"/>
<ellipse cx="58.8879" cy="183.437" rx="26.5662" ry="26.9472" transform="rotate(-15.3763 58.8879 183.437)" fill="#61BFBA"/>
<ellipse cx="101.685" cy="351.393" rx="26.5662" ry="26.9472" transform="rotate(-15.3763 101.685 351.393)" fill="#FEFFFF"/>
<ellipse cx="202.845" cy="233.711" rx="26.5662" ry="26.9472" transform="rotate(-15.3763 202.845 233.711)" fill="#D6EFED"/>
<ellipse cx="179.871" cy="150.167" rx="26.5662" ry="26.9472" transform="rotate(-15.3763 179.871 150.167)" fill="#75C7C3" fill-opacity="0.3"/>
<ellipse cx="34.7309" cy="100.218" rx="26.5662" ry="26.9472" transform="rotate(-15.3763 34.7309 100.218)" fill="#FEFFFF"/>
<path d="M106.296 260.262C110.242 274.612 101.973 289.399 87.8257 293.289C73.6788 297.179 59.0114 288.7 55.0652 274.351C51.119 260.001 59.3883 245.214 73.5352 241.324C87.6821 237.433 102.349 245.912 106.296 260.262Z" fill="#FEFFFF" fill-opacity="0.2"/>
</svg>
